<svg width="16" height="16" viewBox="0 0 16 16" fill="none" xmlns="http://www.w3.org/2000/svg">
<path d="M9.66671 2.66663H6.33337L4.66671 4.66663H2.66671C2.31309 4.66663 1.97395 4.8071 1.7239 5.05715C1.47385 5.3072 1.33337 5.64634 1.33337 5.99996V12C1.33337 12.3536 1.47385 12.6927 1.7239 12.9428C1.97395 13.1928 2.31309 13.3333 2.66671 13.3333H13.3334C13.687 13.3333 14.0261 13.1928 14.2762 12.9428C14.5262 12.6927 14.6667 12.3536 14.6667 12V5.99996C14.6667 5.64634 14.5262 5.3072 14.2762 5.05715C14.0261 4.8071 13.687 4.66663 13.3334 4.66663H11.3334L9.66671 2.66663Z" stroke="#075B5E" stroke-width="1.33333" stroke-linecap="round" stroke-linejoin="round"/>
<path d="M8 10.6666C9.10457 10.6666 10 9.7712 10 8.66663C10 7.56206 9.10457 6.66663 8 6.66663C6.89543 6.66663 6 7.56206 6 8.66663C6 9.7712 6.89543 10.6666 8 10.6666Z" stroke="#075B5E" stroke-width="1.33333" stroke-linecap="round" stroke-linejoin="round"/>
</svg>
