<svg width="16" height="16" viewBox="0 0 16 16" fill="none" xmlns="http://www.w3.org/2000/svg">
<path d="M13.3333 4H2.66659C1.93021 4 1.33325 4.59695 1.33325 5.33333V10.6667C1.33325 11.403 1.93021 12 2.66659 12H13.3333C14.0696 12 14.6666 11.403 14.6666 10.6667V5.33333C14.6666 4.59695 14.0696 4 13.3333 4Z" stroke="#FF3F33" stroke-width="1.33333" stroke-linecap="round" stroke-linejoin="round"/>
<path d="M8.00008 9.33317C8.73646 9.33317 9.33341 8.73622 9.33341 7.99984C9.33341 7.26346 8.73646 6.6665 8.00008 6.6665C7.2637 6.6665 6.66675 7.26346 6.66675 7.99984C6.66675 8.73622 7.2637 9.33317 8.00008 9.33317Z" stroke="#FF3F33" stroke-width="1.33333" stroke-linecap="round" stroke-linejoin="round"/>
<path d="M4 8H4.00667M12 8H12.0067" stroke="#FF3F33" stroke-width="1.33333" stroke-linecap="round" stroke-linejoin="round"/>
</svg>
